<?xml version="1.0" encoding="UTF-8" standalone="no"?>
<!-- Created with Inkscape (http://www.inkscape.org/) -->

<svg
   xmlns:dc="http://purl.org/dc/elements/1.1/"
   xmlns:cc="http://creativecommons.org/ns#"
   xmlns:rdf="http://www.w3.org/1999/02/22-rdf-syntax-ns#"
   xmlns:svg="http://www.w3.org/2000/svg"
   xmlns="http://www.w3.org/2000/svg"
   xmlns:xlink="http://www.w3.org/1999/xlink"
   xmlns:sodipodi="http://sodipodi.sourceforge.net/DTD/sodipodi-0.dtd"
   xmlns:inkscape="http://www.inkscape.org/namespaces/inkscape"
   width="512"
   height="512"
   viewBox="0 0 135.46666 135.46667"
   version="1.1"
   id="svg8"
   inkscape:version="0.92.5 (2060ec1f9f, 2020-04-08)"
   sodipodi:docname="icon.svg"
   inkscape:export-filename="/home/david/code/play/icon.png"
   inkscape:export-xdpi="96.000008"
   inkscape:export-ydpi="96.000008">
  <defs
     id="defs2">
    <linearGradient
       inkscape:collect="always"
       id="linearGradient863">
      <stop
         style="stop-color:#c3c3c3;stop-opacity:1"
         offset="0"
         id="stop859" />
      <stop
         style="stop-color:#535353;stop-opacity:1"
         offset="1"
         id="stop861" />
    </linearGradient>
    <linearGradient
       inkscape:collect="always"
       id="linearGradient852">
      <stop
         style="stop-color:#ffffff;stop-opacity:1"
         offset="0"
         id="stop848" />
      <stop
         style="stop-color:#5f5f5f;stop-opacity:1"
         offset="1"
         id="stop850" />
    </linearGradient>
    <linearGradient
       inkscape:collect="always"
       id="linearGradient27">
      <stop
         style="stop-color:#4d4d4d;stop-opacity:1"
         offset="0"
         id="stop23" />
      <stop
         style="stop-color:#1a1a1a;stop-opacity:1"
         offset="1"
         id="stop25" />
    </linearGradient>
    <linearGradient
       inkscape:collect="always"
       xlink:href="#linearGradient852"
       id="linearGradient854"
       x1="53.406296"
       y1="209.03593"
       x2="66.555634"
       y2="198.55856"
       gradientUnits="userSpaceOnUse"
       spreadMethod="reflect"
       gradientTransform="matrix(5.6759864,4.2995123,-4.2995123,5.6759864,846.93128,-1234.1149)" />
    <radialGradient
       inkscape:collect="always"
       xlink:href="#linearGradient27"
       id="radialGradient857"
       cx="45.023758"
       cy="197.7849"
       fx="45.023758"
       fy="197.7849"
       r="102.05371"
       gradientTransform="matrix(1.0115122,1.2935232,-1.0823661,0.84639111,213.55734,-27.857751)"
       gradientUnits="userSpaceOnUse" />
    <linearGradient
       inkscape:collect="always"
       xlink:href="#linearGradient863"
       id="linearGradient865"
       x1="-35.778221"
       y1="125.4634"
       x2="-35.778221"
       y2="332.77823"
       gradientUnits="userSpaceOnUse" />
  </defs>
  <sodipodi:namedview
     id="base"
     pagecolor="#ffffff"
     bordercolor="#666666"
     borderopacity="1.0"
     inkscape:pageopacity="0.0"
     inkscape:pageshadow="2"
     inkscape:zoom="0.175"
     inkscape:cx="92.344565"
     inkscape:cy="1163.9655"
     inkscape:document-units="mm"
     inkscape:current-layer="layer1"
     showgrid="false"
     units="px"
     inkscape:window-width="2560"
     inkscape:window-height="1363"
     inkscape:window-x="0"
     inkscape:window-y="0"
     inkscape:window-maximized="1" />
  <metadata
     id="metadata5">
    <rdf:RDF>
      <cc:Work
         rdf:about="">
        <dc:format>image/svg+xml</dc:format>
        <dc:type
           rdf:resource="http://purl.org/dc/dcmitype/StillImage" />
        <dc:title></dc:title>
      </cc:Work>
    </rdf:RDF>
  </metadata>
  <g
     inkscape:label="Layer 1"
     inkscape:groupmode="layer"
     id="layer1"
     transform="translate(0,-161.53332)">
    <path
       sodipodi:type="inkscape:offset"
       inkscape:radius="35.907738"
       inkscape:original="M 1.5878906 163.12109 L 1.5878906 295.41211 L 133.87891 295.41211 L 133.87891 163.12109 L 1.5878906 163.12109 z "
       style="fill:url(#radialGradient857);fill-opacity:1;stroke:url(#linearGradient865);stroke-width:17.9774456;stroke-miterlimit:4;stroke-dasharray:none;stroke-opacity:1"
       id="rect21"
       d="m 1.5878906,127.21289 a 35.911329,35.911329 0 0 0 -35.9082026,35.9082 v 132.29102 a 35.911329,35.911329 0 0 0 35.9082026,35.9082 H 133.87891 a 35.911329,35.911329 0 0 0 35.9082,-35.9082 V 163.12109 a 35.911329,35.911329 0 0 0 -35.9082,-35.9082 z"
       transform="matrix(0.58880754,0,0,0.58859371,27.851397,94.321775)" />
    <path
       style="fill:url(#linearGradient854);fill-opacity:1;stroke:#1f1f1f;stroke-width:35.00000044;stroke-miterlimit:4;stroke-dasharray:none;stroke-opacity:1;paint-order:stroke fill markers"
       d="M 252.74219 97.111328 C 252.33521 97.105446 251.8971 97.107172 251.43164 97.117188 C 247.19408 97.20869 245.44543 97.797949 244.80469 99.345703 C 244.32586 100.50231 242.56579 101.93657 240.89258 102.5332 C 238.33682 103.4446 237.41824 103.16492 235.15625 100.79297 C 232.73621 98.255243 232.16542 98.148018 229.51953 99.730469 C 221.81872 104.33631 216.91612 105.97349 215.05078 104.56055 C 214.62509 104.23626 213.28126 104.20564 212.06445 104.49023 C 210.35186 104.89083 209.62861 105.76506 208.86133 108.36133 C 208.05802 111.07945 207.03667 112.19182 203.47461 114.23242 C 201.05712 115.61735 198.26172 117.29472 197.26367 117.96094 C 195.72227 118.98935 195.3699 118.83577 194.92578 116.9375 C 194.48324 115.04619 194.01944 114.81731 191.9043 115.45117 C 188.48272 116.47644 186.20465 119.77043 187.25586 122.17383 C 188.03811 123.96241 187.5126 124.76896 182.04492 130.17188 C 178.70035 133.47681 175.54286 136.23874 175.02734 136.31055 C 174.51199 136.38168 173.86033 135.22771 173.58008 133.74609 C 172.93465 130.33382 171.61635 130.52273 168.64062 134.45117 C 167.04612 136.5561 166.43093 138.82752 166.73828 141.47266 C 167.16191 145.11741 166.82626 145.79136 161.82227 151.36133 C 158.02136 155.59217 156.1058 157.07254 155.25977 156.43164 C 153.47866 155.0825 151.12432 158.90009 150.61133 163.9707 C 150.36259 166.4291 148.52642 172.22038 146.53125 176.8418 C 144.53603 181.46333 142.65522 185.94058 142.34961 186.79102 L 142.34961 186.79297 C 141.92862 187.96462 142.22878 188.27731 143.58984 188.08984 C 144.95075 187.90211 145.92997 186.54299 147.63672 182.47656 C 150.76598 175.02076 152.54644 175.03153 155.10156 182.51953 L 157.09766 188.37109 L 162.69531 188.21094 C 169.26336 188.02257 170.02271 187.41397 167.54297 184.32617 C 166.51395 183.04491 166.06327 180.81851 166.51758 179.26758 C 167.50569 175.8945 175.44909 165.21273 176.86914 165.34766 C 177.43061 165.40091 179.52248 167.79199 181.51953 170.66016 L 185.15039 175.875 L 182.14844 180.40625 C 178.41387 186.043 178.55164 187.64333 182.79492 187.93359 C 184.95872 188.08152 186.9158 187.24902 188.53906 185.48633 C 190.81464 183.0155 191.28032 182.99124 194.69727 185.16602 C 198.64942 187.68171 202.18631 188.10815 214.16016 187.51367 C 221.54868 187.14687 221.81786 187.02403 225.2832 182.44922 C 229.43913 176.96293 230.35795 176.984 235.54297 182.6875 C 238.86759 186.34457 239.73328 186.77022 244.44531 187.07031 C 247.31581 187.25294 252.60625 187.11958 256.20312 186.77148 C 261.59616 186.24976 263.16924 185.57794 265.17578 182.95117 C 266.51354 181.19879 268.56875 179.0201 269.74219 178.10742 C 271.75084 176.54546 272.10996 176.68589 275.88281 180.51172 C 278.08697 182.74674 280.60692 185.07557 281.48242 185.68555 C 283.88481 187.36041 305.22998 186.79519 307.29688 185.00195 C 308.28969 184.14049 309.83263 182.74041 310.72656 181.89062 C 312.03995 180.64206 312.89531 180.83208 315.18359 182.88281 C 318.89977 186.21273 324.33949 187.61595 325.39062 185.51562 C 325.85036 184.59701 324.84715 181.92509 323.07422 179.34375 C 321.35482 176.84023 319.89956 174.43814 319.83984 174.00391 C 319.78006 173.57005 321.04798 171.06152 322.6582 168.42969 C 326.93294 161.44266 328.50648 161.70084 334.63086 170.39258 C 339.47186 177.26281 339.49676 177.35671 337.28516 180.83984 C 334.43827 185.32365 336.08024 186.66623 343.84961 186.20312 C 349.21034 185.88372 349.60377 185.67229 349.44141 183.20312 C 349.19584 179.46498 351.52803 172.9825 353.20117 172.75195 C 354.00578 172.64091 355.85202 175.31633 357.63477 179.17969 C 360.34468 185.05258 360.95054 185.76431 363.00586 185.48047 C 365.06117 185.19689 365.29299 184.82179 365.06055 182.16406 C 364.89308 180.24977 363.999 178.82772 362.58594 178.22266 C 359.46139 176.88501 353.28432 164.34829 354.31641 161.43945 C 355.2606 158.77821 352.9558 152.12215 350.42188 150.19531 C 349.08603 149.17926 348.76145 149.30132 348.96094 150.74805 C 349.30899 153.27107 347.75914 155.11382 346.25 153.9707 C 345.57347 153.45824 343.01111 150.24302 340.55664 146.82617 C 337.07984 141.98649 336.37715 140.23851 337.37891 138.91602 C 338.99997 136.7759 337.89381 134.36643 332.65039 128.62695 C 327.79614 123.31335 325.20461 122.8048 328.44727 127.80273 C 329.68018 129.70232 330.25591 131.82702 329.72852 132.52344 C 328.98727 133.50196 327.37633 132.73334 322.62305 129.13281 C 316.81518 124.73337 316.47778 124.24745 316.52344 120.34766 C 316.56373 116.88671 315.96542 115.76133 312.82031 113.37891 C 308.74974 110.29557 306.01212 110.2153 308.40039 113.25 C 311.32212 116.96335 307.42706 116.91784 301.25195 113.16602 C 296.56012 110.31546 295.14005 108.99841 295.11133 107.47266 C 295.04651 104.06991 288.93266 101.17247 287.05273 103.6543 C 285.98018 105.07022 277.72576 102.19747 275.48828 99.628906 C 273.10962 96.898727 267.13061 97.233995 266.09375 100.15625 C 265.69837 101.27064 264.29604 102.29357 262.90039 102.48633 C 259.96732 102.89108 256.07741 100.27991 256.73242 98.345703 C 256.99137 97.580906 255.591 97.152504 252.74219 97.111328 z M 251.63867 102.05859 C 251.95106 102.07725 252.20267 102.14658 252.37305 102.27344 C 253.2205 102.90488 255.06269 103.88894 256.4668 104.46094 C 258.90322 105.45348 258.88163 105.63201 255.98047 108.39844 C 254.3087 109.99264 252.05119 111.5054 250.96484 111.75977 C 248.83279 112.25851 241.76932 107.54227 242.73633 106.26562 C 244.26269 104.25068 249.45194 101.92798 251.63867 102.05859 z M 274.39844 103.05078 C 275.42353 103.06319 276.57991 103.26854 277.8125 103.72852 C 285.73938 106.68679 287.15778 109.28079 282.47852 112.25781 C 281.0059 113.19476 279.51046 113.13113 278.11523 112.07422 C 276.9475 111.1897 274.61914 109.80272 272.94141 108.99023 C 267.97914 106.58777 269.95638 102.99699 274.39844 103.05078 z M 227.69141 103.69336 C 228.41912 103.76184 229.04573 104.05424 229.70898 104.55664 C 231.8054 106.14468 231.75554 106.43183 228.94336 108.98438 C 227.28982 110.48538 224.8559 112.38822 223.53516 113.21484 L 223.53516 113.2168 C 221.86662 114.2607 220.44532 114.19635 218.87891 113.00977 C 215.69174 110.59552 216.88691 108.09234 222.56641 105.2832 C 224.98343 104.08769 226.47855 103.57923 227.69141 103.69336 z M 264.79102 110.64258 C 267.23057 110.59874 275.15327 115.3009 275.90234 117.23828 C 276.80615 119.57599 270.4497 125.33075 267.48242 124.86133 C 264.43017 124.3783 257.21404 118.83494 257.37891 117.09961 C 257.56221 115.16933 262.71503 110.67659 264.79102 110.64258 z M 235.81836 111.01562 C 236.92566 111.01022 237.94867 111.60468 239.59766 112.68945 C 243.79417 115.4504 244.04063 117.35199 240.56641 120.13281 C 238.99589 121.38992 236.6414 123.32409 235.33203 124.43164 C 233.18882 126.2446 232.57312 126.16085 229.17383 123.58594 C 223.91407 119.60167 223.98276 118.15832 229.61523 114.25195 C 232.83063 112.02173 234.39469 111.02258 235.81836 111.01562 z M 294.40039 113.37109 C 295.99613 113.36648 298.12644 114.73977 302.04883 117.71094 C 305.90894 120.63497 307.04509 122.03851 306.65234 123.39453 C 305.73974 126.54601 303.76768 128.40674 301.91016 127.86914 C 300.91965 127.58258 297.56072 125.41698 294.44727 123.05859 L 288.78711 118.77148 L 291.05469 115.7793 C 292.24108 114.21306 293.15926 113.37468 294.40039 113.37109 z M 209.0293 114.95898 C 210.60449 114.91568 211.5242 115.95121 212.17383 118.11914 C 212.9146 120.5902 212.82778 120.7042 206.66602 125.33008 C 203.22285 127.91505 199.93614 129.83501 199.36328 129.59766 C 198.79057 129.36004 197.75484 128.06001 197.06055 126.70898 C 195.51266 123.69587 197.55751 120.8259 203.98047 116.99414 C 206.18295 115.6802 207.80415 114.99267 209.0293 114.95898 z M 249.65625 122.55078 C 251.52892 122.47197 253.8759 123.86968 258.84766 127.86328 L 262.20703 130.5625 L 257.77148 135.29883 C 255.33257 137.90413 252.56085 140.51909 251.61133 141.10938 C 250.2168 141.97617 248.92307 141.39873 244.88477 138.10352 C 242.13469 135.85976 239.65118 133.42269 239.36719 132.6875 C 238.73951 131.06389 245.96677 123.4522 248.87695 122.67188 C 249.13142 122.60363 249.38873 122.56204 249.65625 122.55078 z M 284.08008 123.56055 C 285.75761 123.48332 287.79758 124.9624 291.71484 127.92969 L 298.67578 133.20312 L 295.72461 137.09961 C 294.10113 139.24287 292.05544 141.44238 291.17969 141.98633 C 289.91373 142.77334 288.16137 141.89545 282.62695 137.70312 L 275.66602 132.42969 L 278.61719 128.5332 C 281.08753 125.27189 282.40255 123.63778 284.08008 123.56055 z M 216.82812 124.86133 C 217.85265 124.78356 218.74076 125.39929 220.37695 126.63867 C 222.24369 128.05271 223.91228 130.2269 224.08398 131.4707 C 224.3927 133.70856 223.52822 134.7055 214.42773 142.60547 C 212.47192 144.30323 209.90688 142.96249 205.29297 137.83008 C 202.9643 135.23959 204.68577 132.698 212.46484 127.23828 C 214.64268 125.70982 215.8036 124.9391 216.82812 124.86133 z M 315.47656 127.51758 L 321.9043 133.07031 C 328.95835 139.16246 329.95097 142.02336 326.32227 145.80273 C 324.06578 148.15292 323.09864 147.68004 316.91602 141.20117 C 311.35965 135.37862 310.82195 133.66083 313.46484 130.17188 L 315.47656 127.51758 z M 187.54297 130.88672 C 188.90873 130.8744 189.93839 131.98907 190.97266 134.15625 C 192.81001 138.00623 192.83743 137.96183 182.73438 147.74805 C 180.68709 149.73113 179.70549 149.95552 178.19922 148.7793 C 177.14135 147.95381 175.95321 146.1363 175.56055 144.74219 C 174.93705 142.52897 175.48644 141.50956 179.89453 136.69531 C 183.4762 132.78359 185.787 130.90255 187.54297 130.88672 z M 268.44922 137.37305 L 275.23633 142.1582 C 284.51756 148.70181 284.57558 149.06356 277.42383 155.79883 L 271.60547 161.2793 L 268.49414 158.67969 C 261.32854 152.69314 258.52633 149.73947 258.45312 148.09375 C 258.40076 146.91529 260.0104 144.89141 263.41211 141.86133 L 268.44922 137.37305 z M 230.61719 137.86328 L 236.57031 142.69727 C 239.84498 145.35518 242.54984 148.02746 242.58008 148.63672 C 242.61075 149.2459 239.95417 152.39813 236.67578 155.64062 L 230.71484 161.53516 L 227.0918 158.98828 C 225.09965 157.58687 222.27288 155.1322 220.81055 153.53516 C 217.64703 150.08003 218.22808 148.6943 225.51172 142.32617 L 230.61719 137.86328 z M 306.06836 140.88281 L 310.69727 143.98047 C 313.24388 145.68447 316.51337 148.78544 317.96094 150.87109 C 320.8431 155.02362 320.2842 157.2438 315.19727 161.86133 C 312.5146 164.29663 312.2261 164.27881 308.76367 161.49023 C 303.59228 157.3252 298.56902 151.8845 298.33594 150.19531 C 298.22359 149.3815 299.86936 147.0303 302.10156 144.81641 L 306.06836 140.88281 z M 195.83008 143.63672 C 197.66718 143.43253 199.27743 145.11772 202.28516 148.51172 L 204.65039 151.18359 L 198.64062 158.5918 L 192.63086 166 L 189.87891 164.13477 C 182.59318 159.19099 182.20513 156.27256 188.01172 150.09961 C 191.92824 145.93597 193.99298 143.8409 195.83008 143.63672 z M 336.54883 148.5332 C 337.89207 148.63996 339.72906 150.59774 343.01367 155.06641 C 347.35523 160.97313 348.0881 165.09348 345.42188 168.61328 C 343.03378 171.7659 342.26444 171.28177 336.21094 162.82617 C 331.87954 156.77602 331.6013 153.87176 334.93359 149.47266 C 335.42937 148.81815 335.93826 148.48468 336.54883 148.5332 z M 168.09766 151.60742 C 168.7889 151.67315 170.06345 153.21404 170.93164 155.0332 C 172.40145 158.11306 172.20812 158.82961 168.12109 165.42383 C 165.70694 169.3189 163.0419 172.93349 162.19922 173.45703 C 160.04519 174.79582 159.13055 173.77993 158 168.79492 C 157.06553 164.67425 157.26298 164.13079 161.92773 157.97266 C 164.62931 154.40611 167.40618 151.5443 168.09766 151.60742 z M 249.68945 156.22266 C 251.91738 155.93156 263.5263 166.71052 263.32031 168.87891 C 263.18063 170.34944 253.18115 181.26973 251.3125 181.99219 L 251.3125 181.99023 C 249.83185 182.56317 247.7687 180.88956 241.85352 174.31836 L 237.33008 169.29297 L 242.56445 162.88281 C 245.52828 159.25216 248.61793 156.3625 249.68945 156.22266 z M 291.1875 157.61328 C 292.77734 157.39396 304.05474 168.11781 305.11328 170.85547 C 305.64342 172.22657 297.26561 181.41679 294.1582 182.87305 C 293.06863 183.3837 291.52413 183.24665 290.73047 182.56641 C 288.05096 180.27832 279.77406 170.21593 279.61328 169.05078 C 279.40149 167.51618 289.13593 157.89637 291.1875 157.61328 z M 210.44531 159.00586 C 211.94813 158.97237 213.47684 160.28629 215.97266 162.68359 C 223.23642 169.66079 223.27219 170.09918 217.14648 177.23633 C 214.25365 180.60672 211.35489 183.74142 210.70508 184.20312 L 210.70508 184.20508 C 209.26852 185.22642 205.05136 181.87857 199.25781 175.11719 C 197.71144 173.31258 197.94887 172.72627 202.7793 166.375 C 206.62455 161.31956 208.51312 159.04891 210.44531 159.00586 z M 361.65039 194.32227 C 355.05724 194.27313 345.94273 194.33969 335.50781 194.52734 C 318.8621 194.82657 309.54731 194.93267 291.40039 195.0332 C 284.50043 195.07175 270.32096 195.22413 259.89062 195.37305 C 249.46029 195.52196 237.27161 195.68915 232.80469 195.73828 C 228.33771 195.79044 220.77596 195.89064 216 195.96094 C 211.22407 196.03086 202.93231 196.10037 197.57422 196.12305 C 189.13908 196.15185 167.33645 196.39176 144.72266 196.70508 C 137.72773 196.80161 134.61108 198.09514 134.61523 200.89648 C 134.6166 201.81521 134.66808 208.06921 134.72852 214.79492 C 134.80162 222.95851 135.42585 227.46773 136.60547 228.36133 C 137.5773 229.09766 151.9676 229.53701 168.58398 229.33594 C 205.67712 228.8875 209.91162 228.84373 226.41016 228.73828 C 233.64291 228.69198 250.59229 228.52032 264.07617 228.35742 C 306.63624 227.84167 316.14724 227.73531 320.81641 227.70508 C 323.31735 227.69109 333.46694 227.5713 343.36914 227.4375 C 353.27142 227.30484 363.69746 227.23174 366.53906 227.28125 C 369.44182 227.3305 372.27345 226.6199 373.00195 225.6582 C 374.94376 223.09463 374.65565 196.30691 372.66992 194.80273 C 372.31629 194.53458 368.24354 194.3714 361.65039 194.32227 z M 342.57812 235.76367 C 342.0516 235.78663 341.66957 235.87358 341.56055 236.01758 C 341.34209 236.30554 341.39268 239.17763 341.67188 242.40039 C 342.21299 248.64534 342.16421 248.72502 333.43555 255.67969 C 329.52668 258.79409 328.71185 257.85817 327.67188 249.06445 C 327.10468 244.26918 327.37409 243.37057 330.19727 240.66602 C 331.93604 239.00053 333.30271 237.23302 333.23438 236.73828 C 333.16606 236.24365 329.42109 235.88156 324.91211 235.9375 C 317.09372 236.03138 316.70458 236.17094 316.51367 238.96484 C 316.33774 241.54014 315.5618 242.52796 310.10156 247.13086 C 306.68533 250.01075 303.54724 252.1073 303.12695 251.78906 C 302.70664 251.47064 300.66493 248.04961 298.58984 244.1875 C 296.51478 240.32531 294.52122 236.9549 294.16602 236.69336 C 293.80886 236.43371 291.03563 236.36319 288.00195 236.53516 C 282.93682 236.8221 281.99974 237.32892 276.5332 242.74805 C 273.25912 245.99372 270.02419 248.75261 269.3457 248.87695 C 268.66692 249.00172 266.45597 246.7688 264.43164 243.91602 C 260.08485 237.79072 257.58886 236.53793 250.35547 236.85352 C 245.0781 237.08354 244.88205 237.20952 240.32422 243.22656 C 237.21755 247.32777 235.20415 249.22418 234.25781 248.94336 C 233.47901 248.71167 230.33357 246.06022 227.26758 243.05273 C 222.00423 237.88964 221.41087 237.56907 216.63477 237.31055 C 210.12327 236.95761 210.24688 236.88662 208.56445 242.02148 C 207.77628 244.427 206.28308 248.09442 205.24609 250.17188 L 203.36133 253.94922 L 196.92578 249.07422 C 191.62807 245.06131 190.38977 243.61555 189.92773 240.89648 L 189.36719 237.5918 L 180.75586 237.60352 C 171.46365 237.62139 170.60237 238.78957 176.53711 243.32031 C 179.38533 245.49687 179.64193 246.39856 179.0957 252.3125 C 178.76182 255.92754 178.24139 259.20903 177.94141 259.60547 C 177.14364 260.65863 173.44765 258.55523 168.89062 254.4668 C 165.13361 251.09553 164.9384 250.52468 165.51562 244.57227 C 166.04496 239.11708 165.80422 238.20357 163.75 237.87891 C 161.16856 237.47053 158.51263 240.05946 159.33398 242.18359 C 160.34233 244.79169 156.51134 244.0027 152.83594 240.8457 C 150.46445 238.80873 148.49813 237.88653 147.17969 238.19531 C 144.09845 238.91618 147.17888 256.52587 151.89062 265.12305 L 151.89062 265.12891 C 156.16343 272.92501 156.26364 273.02208 161.55273 274.38672 C 167.4298 275.90299 168.70689 274.49923 167.13867 268.24219 C 166.39363 265.26838 166.03322 262.50543 166.33789 262.10352 C 167.4538 260.63033 177.63745 268.01375 179.01758 271.29688 C 180.27766 274.29419 180.61591 274.42605 187.33398 274.52734 C 191.18579 274.58532 194.38986 274.0861 194.45312 273.41992 C 194.51676 272.75132 192.51135 271.04141 189.98633 269.60742 C 185.50527 267.06312 185.41119 266.89553 185.67969 261.86914 C 185.83066 259.04311 186.3662 255.6355 186.86914 254.29883 C 187.76029 251.93005 187.95074 251.99488 194.44727 256.91602 L 201.11133 261.96484 L 200.67383 267.07031 C 200.10725 273.7058 200.48792 274.46734 204.30078 274.34375 C 206.93179 274.25848 207.55431 273.79876 207.88672 271.69727 C 208.40836 268.39914 209.52206 268.33608 213.53125 271.37305 C 215.81843 273.10558 218.79875 273.94812 223.34375 274.14844 C 229.68782 274.42797 229.96725 274.31027 233.32617 269.96094 C 235.22698 267.49978 237.22287 265.42678 237.76172 265.35156 C 238.30033 265.27699 240.34289 267.07021 242.30078 269.33789 C 245.35716 272.87659 246.42514 273.51323 249.83984 273.83789 C 256.13612 274.43604 258.67731 273.46096 262.89648 268.82812 C 265.06555 266.44642 267.29867 264.43528 267.85938 264.35742 C 268.41967 264.28021 269.77017 265.94222 270.86133 268.05078 C 273.62119 273.38351 274.36008 273.74027 282.25195 273.57812 C 287.82069 273.46319 290.05523 272.77347 293.31445 270.16016 C 297.73385 266.61628 298.41062 266.64573 299.54688 270.4375 C 300.18761 272.57418 300.72462 272.95946 303.32031 273.13672 C 307.44176 273.41844 308.14688 272.06655 307.02344 266.03711 C 305.98247 260.45025 306.17506 259.95502 310.8418 256.24609 C 312.56321 254.87798 315.0441 252.85365 316.35352 251.74609 C 319.48178 249.09978 320.23464 249.86255 321.60156 257.05469 C 322.7957 263.33823 321.97179 264.95607 314.94922 270.11523 C 311.80228 272.42676 314.28527 273.49295 321.70312 273.01367 C 327.48458 272.63984 328.14196 272.33413 328.53711 269.83594 C 328.87367 267.70663 330.08554 266.09517 333.81641 262.82422 C 336.48014 260.48889 339.08968 258.40539 339.61523 258.19336 C 341.20716 257.55171 341.50217 261.21791 340.31055 266.83984 C 339.69021 269.76656 339.54975 272.4399 339.99805 272.7793 C 340.4463 273.11881 343.414 272.50889 346.59375 271.42383 L 352.375 269.45117 L 357.13672 261.01758 C 360.79083 254.54665 361.76421 251.83725 361.31836 249.36914 C 360.99912 247.60021 360.82453 244.18899 360.93164 241.78906 C 361.03893 239.38921 360.50263 236.95263 359.74023 236.375 C 357.82068 234.92094 354.03121 236.17747 351.84766 238.99023 C 349.55323 241.94586 347.73823 241.82964 347.30664 238.70117 C 347.04901 236.8314 346.40955 236.19752 344.4668 235.89062 C 343.77698 235.7814 343.10465 235.74071 342.57812 235.76367 z M 251.56445 243.95703 L 254.46289 246.54492 C 259.01629 250.61218 262.52976 255.58794 262.04102 257.27539 C 261.79518 258.12386 259.52947 261.08443 257.00586 263.85547 C 251.91103 269.44977 251.75728 269.43074 245.98242 262.46484 C 241.54572 257.11307 241.62999 255.93103 246.90234 249.57617 L 251.56445 243.95703 z M 356.375 244.50195 C 356.47394 244.50509 356.55138 244.53206 356.60352 244.58398 C 358.02291 245.999 355.47576 256.02068 352.7793 259.63281 C 351.30149 261.61211 349.05391 263.54387 347.78516 263.92383 C 345.72124 264.54227 345.63267 263.88103 346.94727 257.6543 C 348.19991 251.7207 348.96473 250.1887 352.13086 247.26172 C 353.91808 245.60943 355.68244 244.47998 356.375 244.50195 z M 286.84375 244.71289 L 289.25 247.23438 C 290.57334 248.62226 292.48311 251.77295 293.49414 254.23633 C 295.48362 259.08361 295.31089 259.38717 285.80859 267.73438 C 284.21776 269.13178 282.45782 270.07902 281.89648 269.83789 C 280.74681 269.34444 275.52155 259.59632 275.21484 257.37305 C 275.09175 256.481 277.27631 253.78463 280.92969 250.32031 L 286.84375 244.71289 z M 217.04297 247.21094 C 218.01226 247.16852 219.59311 248.2034 223.08594 250.86133 C 226.35474 253.34905 229.2969 256.10371 229.625 256.98438 C 230.25673 258.67658 225.58627 270.18224 224.18945 270.375 C 222.5212 270.60525 212.5159 262.2074 211.94922 260.10156 C 211.37262 257.95865 213.69435 250.91999 215.97852 247.88477 C 216.28951 247.47149 216.60238 247.23022 217.04297 247.21094 z M 150.57812 248.25 C 151.20571 248.17065 152.96544 249.08277 154.81836 250.48633 C 158.02261 252.9135 158.95937 254.59046 160.39648 260.47266 C 161.34621 264.36005 161.65953 267.71911 161.0918 267.93945 C 160.02717 268.35119 157.74937 266.68302 154.52344 263.12891 C 152.5575 260.9632 149.38898 249.65508 150.38086 248.3457 C 150.42122 248.29242 150.48847 248.26134 150.57812 248.25 z M 329.4043 281.5 C 324.83827 281.51184 319.32577 281.56737 312.69727 281.66016 C 308.54224 281.71761 303.11408 281.7902 300.63672 281.82422 C 296.0017 281.88394 277.90187 282.04172 269.84766 282.09766 C 267.34988 282.11455 254.38683 282.28904 241.04102 282.48633 C 227.69525 282.68381 212.65611 282.85623 207.61914 282.87891 C 172.86564 283.00348 163.026 283.26132 161.69922 284.08594 C 159.27018 285.59575 160.21396 288.56437 167.05078 300.89844 C 170.86125 307.7726 174.69777 313.98247 175.57422 314.69922 C 176.45135 315.4151 186.08581 315.88959 196.98438 315.75391 C 252.15981 315.06596 292.17041 314.61264 302.18164 314.57031 C 320.62567 314.48686 331.55121 314.13537 334.07617 313.54297 C 336.14219 313.05855 337.34426 311.40745 342.9375 301.38086 C 350.61612 287.6159 351.7179 284.42783 349.40234 282.67383 C 348.26923 281.8153 343.10236 281.46447 329.4043 281.5 z M 324.12695 322.65625 C 323.16699 322.63426 322.14582 322.63647 321.11133 322.66406 C 316.97335 322.77442 310.31022 322.87576 306.30469 322.89844 C 302.29916 322.91809 295.36746 322.97979 290.90039 323.0293 C 282.27865 323.12979 266.39382 323.3065 241.2207 323.58203 C 232.75261 323.67501 222.35123 323.80148 218.10742 323.85742 C 213.86358 323.91752 204.30261 324.00127 196.85938 324.05078 C 189.41619 324.0967 182.78963 324.4463 182.13477 324.83008 C 181.48004 325.21366 181.54713 333.12868 182.2832 342.41797 C 183.01924 351.70722 183.97748 364.19846 184.41211 370.17578 C 184.84672 376.15307 185.56647 385.09732 186.01172 390.05273 C 186.45701 395.00811 187.51041 407.63399 188.35352 418.11133 C 189.19659 428.58871 190.19511 440.56526 190.57227 444.72656 C 190.94947 448.88782 191.36193 454.44935 191.48828 457.08398 C 191.56932 458.77278 191.72661 460.90473 191.89453 462.91211 L 323.38477 462.91211 C 325.15939 430.31513 326.32234 408.56805 327.37891 387.76172 C 328.0424 374.69657 328.71777 362.59428 328.88086 360.86719 C 330.22663 346.61448 330.79707 324.09962 329.83008 323.36719 C 329.33737 322.99386 327.00684 322.72221 324.12695 322.65625 z "
       transform="matrix(0.26458333,0,0,0.26458333,0,161.53332)"
       id="path838" />
    <path
       transform="matrix(0.58880754,0,0,0.58859371,27.851397,94.321775)"
       d="m 1.5878906,127.21289 a 35.911329,35.911329 0 0 0 -35.9082026,35.9082 v 132.29102 a 35.911329,35.911329 0 0 0 35.9082026,35.9082 H 133.87891 a 35.911329,35.911329 0 0 0 35.9082,-35.9082 V 163.12109 a 35.911329,35.911329 0 0 0 -35.9082,-35.9082 z"
       id="path870"
       style="fill:none;fill-opacity:1;stroke:url(#linearGradient865);stroke-width:17.9774456;stroke-miterlimit:4;stroke-dasharray:none;stroke-opacity:1"
       inkscape:original="M 1.5878906 163.12109 L 1.5878906 295.41211 L 133.87891 295.41211 L 133.87891 163.12109 L 1.5878906 163.12109 z "
       inkscape:radius="35.907738"
       sodipodi:type="inkscape:offset" />
  </g>
</svg>
